# File created by Blade
# Date/Time:  Wed Sep 24 19:53:44 2014
# Frame Rate: 120.000 fps
#------------------------------------------------------
:FULLY-SPECIFIED
:DEGREES
974
root -6.300514 32.831913 -4.206690 9.122439 3.522672 -0.494287
Spine -15.484115 -10.495327 5.383485
Head -6.153183 12.541957 15.516210
LeftShoulder 3.230675 -0.626722 27.539133
LeftArm 98.466576 -39.014865 -112.965792
LeftForeArm -53.101059 -0.000000 129.891173
LeftHand -9.325369 0.000000 -1.401427
LeftHandThumb1 -26.253704 0.000000 33.147579
RightShoulder -15.158732 11.551602 -16.854221
RightArm -8.919172 -23.280253 85.746431
RightForeArm -20.717115 0.000000 23.015014
RightHand -6.630287 -0.000000 8.376956
RightHandThumb1 -24.326973 -0.000000 -32.862282
LeftUpLeg -3.019297 7.807834 4.325705
LeftLeg -2.001242 -0.000000 0.000000
LeftFoot -9.158016 3.876922 -18.225418
LeftToeBase 11.325885 -0.000000 -0.000000
RightUpLeg -4.453138 -7.317719 -2.986855
RightLeg 2.152988 -0.000000 -0.000000
RightFoot -7.900920 -6.397160 -13.525551
RightToeBase -0.430609 -0.000000 0.000000
975
root -6.301571 32.830999 -4.208584 9.170276 3.474555 -0.511027
Spine -15.486790 -10.509466 5.352947
Head -6.103269 12.245059 15.808418
LeftShoulder 3.143524 -0.534095 27.390040
LeftArm 99.583860 -38.738047 -113.608036
LeftForeArm -53.129874 0.000000 131.933447
LeftHand -8.416676 0.000000 -2.525978
LeftHandThumb1 -26.253704 0.000000 33.147579
RightShoulder -15.152895 11.597064 -16.838539
RightArm -8.872084 -23.352738 85.738814
RightForeArm -20.662970 -0.000000 22.920278
RightHand -6.597741 -0.000000 8.421207
RightHandThumb1 -24.326973 -0.000000 -32.862282
LeftUpLeg -3.057938 7.850971 4.331470
LeftLeg -2.010431 -0.000000 0.000000
LeftFoot -9.161099 3.883073 -18.203118
LeftToeBase 11.269323 -0.000000 -0.000000
RightUpLeg -4.504534 -7.317286 -2.964772
RightLeg 2.134359 -0.000000 -0.000000
RightFoot -7.898222 -6.367863 -13.540320
RightToeBase -0.451714 -0.000000 0.000000
976
root -6.301981 32.830027 -4.211662 9.228336 3.428353 -0.522658
Spine -15.506714 -10.545700 5.333701
Head -6.075502 12.038279 16.092968
LeftShoulder 3.017205 -0.473841 27.263994
LeftArm 100.718338 -38.394848 -114.345747
LeftForeArm -53.299738 -0.000000 134.011058
LeftHand -7.958012 -0.000000 -4.066852
LeftHandThumb1 -26.253704 0.000000 33.147579
RightShoulder -15.117536 11.639870 -16.819771
RightArm -8.821593 -23.422608 85.730112
RightForeArm -20.605410 -0.000000 22.810633
RightHand -6.586839 -0.000000 8.481646
RightHandThumb1 -24.326973 -0.000000 -32.862282
LeftUpLeg -3.109875 7.845820 4.333777
LeftLeg -2.016859 -0.000000 0.000000
LeftFoot -9.188014 3.930835 -18.200697
LeftToeBase 11.248763 -0.000000 -0.000000
RightUpLeg -4.569488 -7.301851 -2.948682
RightLeg 2.117885 -0.000000 -0.000000
RightFoot -7.887169 -6.341066 -13.556097
RightToeBase -0.475775 -0.000000 0.000000
977
root -6.302704 32.829654 -4.213718 9.275884 3.392255 -0.539271
Spine -15.514608 -10.575933 5.311237
Head -5.972030 11.714043 16.412271
LeftShoulder 2.864959 -0.374835 27.158274
LeftArm 101.851817 -37.970107 -115.054899
LeftForeArm -53.437127 0.000000 136.111616
LeftHand -7.398371 -0.000000 -4.933028
LeftHandThumb1 -26.253704 0.000000 33.147579
RightShoulder -15.078274 11.687314 -16.799831
RightArm -8.804129 -23.454979 85.729349
RightForeArm -20.600827 -0.000000 22.675712
RightHand -6.534246 0.000000 8.494159
RightHandThumb1 -24.326973 -0.000000 -32.862282
LeftUpLeg -3.154389 7.879947 4.340725
LeftLeg -2.018929 -0.000000 0.000000
LeftFoot -9.194126 3.923377 -18.202005
LeftToeBase 11.260459 -0.000000 -0.000000
RightUpLeg -4.625787 -7.308237 -2.925090
RightLeg 2.111927 -0.000000 -0.000000
RightFoot -7.886122 -6.309088 -13.568339
RightToeBase -0.463988 -0.000000 0.000000
978
root -6.303226 32.829108 -4.214677 9.321553 3.366773 -0.550990
Spine -15.533601 -10.620683 5.290668
Head -5.851313 11.467629 16.668674
LeftShoulder 2.741170 -0.296516 27.075177
LeftArm 102.958241 -37.637355 -115.774058
LeftForeArm -53.733393 -0.000000 138.219016
LeftHand -6.949195 0.000000 -6.146281
LeftHandThumb1 -26.253704 0.000000 33.147579
RightShoulder -15.040598 11.721996 -16.766565
RightArm -8.771913 -23.514932 85.710836
RightForeArm -20.561971 0.000000 22.524226
RightHand -6.530419 -0.000000 8.526055
RightHandThumb1 -24.326973 -0.000000 -32.862282
LeftUpLeg -3.191574 7.892781 4.345486
LeftLeg -2.030801 -0.000000 0.000000
LeftFoot -9.214243 3.924885 -18.230327
LeftToeBase 11.328143 -0.000000 -0.000000
RightUpLeg -4.671003 -7.309444 -2.907657
RightLeg 2.095059 -0.000000 -0.000000
RightFoot -7.878592 -6.290500 -13.571678
RightToeBase -0.458434 -0.000000 0.000000
979
root -6.302647 32.828984 -4.215598 9.367856 3.348223 -0.552529
Spine -15.562581 -10.651202 5.265843
Head -5.701724 11.200928 16.885721
LeftShoulder 2.584485 -0.144321 26.981021
LeftArm 104.148470 -37.157862 -116.496833
LeftForeArm -54.160989 -0.000000 140.267757
LeftHand -6.645394 -0.000000 -7.073417
LeftHandThumb1 -26.253704 0.000000 33.147579
RightShoulder -15.016270 11.741838 -16.743460
RightArm -8.745526 -23.571132 85.697661
RightForeArm -20.532275 -0.000000 22.360833
RightHand -6.591096 -0.000000 8.579704
RightHandThumb1 -24.326973 -0.000000 -32.862282
LeftUpLeg -3.233457 7.907416 4.334636
LeftLeg -2.042387 -0.000000 0.000000
LeftFoot -9.209832 3.960176 -18.187785
LeftToeBase 11.296934 -0.000000 -0.000000
RightUpLeg -4.709063 -7.311682 -2.905244
RightLeg 2.068570 -0.000000 -0.000000
RightFoot -7.872593 -6.254364 -13.544850
RightToeBase -0.475534 -0.000000 0.000000
